<svg width="38" height="46" viewBox="0 0 38 46" fill="none" xmlns="http://www.w3.org/2000/svg">
<path d="M37.164 3.01324L19.164 0.0132397C19.0553 -0.00376221 18.9447 -0.00376221 18.836 0.0132397L0.836 3.01324C0.602329 3.05209 0.390036 3.17262 0.236936 3.35338C0.0838365 3.53413 -0.000127682 3.76336 1.4574e-07 4.00024V25.0002C1.4574e-07 31.0582 3.256 36.6122 9.414 41.0602C12.2645 43.1081 15.3839 44.753 18.684 45.9482C18.889 46.0176 19.111 46.0176 19.316 45.9482C22.6161 44.753 25.7355 43.1081 28.586 41.0602C34.744 36.6122 38 31.0582 38 25.0002V4.00024C38.0001 3.76336 37.9162 3.53413 37.7631 3.35338C37.61 3.17262 37.3977 3.05209 37.164 3.01324Z" fill="#01AE7D"/>
<path d="M37.162 3.01313L19.162 0.0131333C19.1075 0.00864307 19.0526 0.00864307 18.998 0.0131333V46.0001C19.1058 45.9998 19.2128 45.9822 19.315 45.9481C22.6147 44.7525 25.7337 43.1077 28.584 41.0601C34.742 36.6121 38 31.0581 38 25.0001V4.00013C38.0001 3.76296 37.9159 3.5335 37.7624 3.3527C37.6088 3.17191 37.3961 3.05155 37.162 3.01313Z" fill="#057B5B"/>
<path d="M31.1697 15.5423L17.8157 31.1212C17.7261 31.2259 17.6158 31.3108 17.4919 31.3708C17.3679 31.4308 17.2328 31.4645 17.0952 31.4699C16.9575 31.4752 16.8203 31.4521 16.692 31.4019C16.5637 31.3517 16.4472 31.2756 16.3497 31.1783L8.87872 23.7073C8.69125 23.5197 8.58594 23.2654 8.58594 23.0003C8.58594 22.7351 8.69125 22.4808 8.87872 22.2933L10.2927 20.8793C10.4803 20.6918 10.7346 20.5865 10.9997 20.5865C11.2649 20.5865 11.5192 20.6918 11.7067 20.8793L16.8867 26.0593L28.1317 12.9393C28.3044 12.738 28.5499 12.6135 28.8144 12.5933C29.0788 12.573 29.3404 12.6586 29.5417 12.8313L31.0607 14.1313C31.1606 14.2167 31.2427 14.321 31.3022 14.4382C31.3618 14.5553 31.3976 14.6831 31.4077 14.8142C31.4179 14.9452 31.4021 15.077 31.3612 15.2019C31.3204 15.3268 31.2553 15.4425 31.1697 15.5423Z" fill="#35363A"/>
</svg>
